<?xml version="1.0" encoding="UTF-8"?> <svg xmlns="http://www.w3.org/2000/svg" xmlns:xlink="http://www.w3.org/1999/xlink" id="Layer_1" data-name="Layer 1" viewBox="0 0 448.87 288.13"><defs><style>.cls-1{fill:url(#linear-gradient);}.cls-2{fill:url(#linear-gradient-2);}.cls-3{fill:#e91c31;}.cls-4{fill:#fff;}</style><linearGradient id="linear-gradient" x1="955.42" y1="363.09" x2="955.42" y2="650.8" gradientUnits="userSpaceOnUse"><stop offset="0" stop-color="#0b75b5"></stop><stop offset="0.04" stop-color="#137ab8"></stop><stop offset="0.37" stop-color="#4ea1cf"></stop><stop offset="0.65" stop-color="#79bddf"></stop><stop offset="0.87" stop-color="#93cfe9"></stop><stop offset="1" stop-color="#9dd5ed"></stop></linearGradient><linearGradient id="linear-gradient-2" x1="967.72" y1="732.22" x2="967.72" y2="444.22" xlink:href="#linear-gradient"></linearGradient></defs><title>cv logo - dark</title><path class="cls-1" d="M1114.78,605.64c-25.78,32.06-73.93,49.09-142.56,49.09C868.93,654.73,773,604,773,542.84c0-40.76,62.48-118.39,187-118.39,85.66,0,137.91,37.14,153.59,65.19h62.1c-32.3-54.64-115.53-93.55-213.14-93.55-151.5,0-227.5,94.42-227.5,144C735.1,614.51,837,683.8,962.6,683.8c88.31,0,164.86-31.7,202.56-78.16Z" transform="translate(-735.1 -396.09)"></path><path class="cls-2" d="M1131,605.64c-28.1,34.63-88.33,48.81-158.73,48.81-103.21,0-174.43-61.81-174.43-111.21,0-51.84,67.4-118.5,185.75-118.5,61.54,0,116.58,21,144.77,64.9H1182c-31.61-53.55-102.22-93.42-201.79-93.42-134.9,0-227.11,81-227.11,144,0,79.53,101.68,144,227.11,144,89.38,0,168.18-30.69,202.23-78.58Z" transform="translate(-735.1 -396.09)"></path><path class="cls-3" d="M907.7,505.58a16.32,16.32,0,0,0-8.71-2.26,17.36,17.36,0,0,0-7.37,1.43,14.1,14.1,0,0,0-5,3.84,15.72,15.72,0,0,0-2.93,5.51,21.83,21.83,0,0,0-.94,6.42,24.49,24.49,0,0,0,.94,6.88,15.6,15.6,0,0,0,2.93,5.65,14,14,0,0,0,5.07,3.84,17.62,17.62,0,0,0,7.41,1.43,16,16,0,0,0,5.61-.92,13,13,0,0,0,4.24-2.56,11.61,11.61,0,0,0,2.79-3.9,14.35,14.35,0,0,0,1.21-4.88h6.4q-.94,8-6.26,12.5T898.52,543a25.6,25.6,0,0,1-9.76-1.7,19,19,0,0,1-6.93-4.67,19.33,19.33,0,0,1-4.14-7,26.78,26.78,0,0,1-1.37-8.69,25.27,25.27,0,0,1,1.48-8.72,19.7,19.7,0,0,1,11.47-11.9,25.56,25.56,0,0,1,9.79-1.76,28,28,0,0,1,7.13.89,20.46,20.46,0,0,1,6,2.62,15.63,15.63,0,0,1,4.37,4.32,14.7,14.7,0,0,1,2.29,6h-6.4A10.4,10.4,0,0,0,907.7,505.58Z" transform="translate(-735.1 -396.09)"></path><path class="cls-3" d="M953,542.72a5.27,5.27,0,0,1-3.53-1.1,4.43,4.43,0,0,1-1.31-3.6,13.61,13.61,0,0,1-5.49,3.6,20.05,20.05,0,0,1-6.76,1.1,21,21,0,0,1-4.44-.44,10.72,10.72,0,0,1-3.66-1.49,7.44,7.44,0,0,1-2.49-2.68,8,8,0,0,1-.91-4,7.62,7.62,0,0,1,3.67-7,13,13,0,0,1,3.76-1.58c1.41-.35,2.86-.65,4.34-.89s3.06-.49,4.48-.63a26.35,26.35,0,0,0,3.73-.59,6.68,6.68,0,0,0,2.56-1.13,2.63,2.63,0,0,0,.94-2.17,4.32,4.32,0,0,0-2.53-4.23,7.7,7.7,0,0,0-2.48-.71,21.09,21.09,0,0,0-2.73-.18,13.28,13.28,0,0,0-6,1.22c-1.62.81-2.49,2.35-2.63,4.61h-5.72a9.93,9.93,0,0,1,1.35-4.82,9.57,9.57,0,0,1,3.23-3.19,14.58,14.58,0,0,1,4.64-1.75,27.34,27.34,0,0,1,5.52-.54,36.26,36.26,0,0,1,4.67.3,13.57,13.57,0,0,1,4.21,1.22,7.87,7.87,0,0,1,3,2.59,7.54,7.54,0,0,1,1.14,4.34v15.84a11,11,0,0,0,.23,2.62c.16.55.69.83,1.59.83a6.22,6.22,0,0,0,1.74-.3V542A8.88,8.88,0,0,1,953,542.72Zm-8-15.5c-1.17.22-2.39.4-3.67.53s-2.57.3-3.87.48a16.15,16.15,0,0,0-3.5.86,6.42,6.42,0,0,0-2.52,1.7,4.4,4.4,0,0,0-1,3,3.76,3.76,0,0,0,.57,2.11,4.72,4.72,0,0,0,1.48,1.4,7,7,0,0,0,2.16.77,13.28,13.28,0,0,0,2.52.24,15,15,0,0,0,4.84-.69,10.44,10.44,0,0,0,3.3-1.72,7,7,0,0,0,1.89-2.26,5.25,5.25,0,0,0,.6-2.29v-5.18A7.81,7.81,0,0,1,945,527.22Z" transform="translate(-735.1 -396.09)"></path><path class="cls-3" d="M967.81,511.3v4.52h.13q3.91-5.24,11.24-5.24a14,14,0,0,1,5.85,1.19,7,7,0,0,1,3.71,4.05,11.66,11.66,0,0,1,4.6-3.87,14.45,14.45,0,0,1,6.29-1.37,20.41,20.41,0,0,1,4.75.51,10.36,10.36,0,0,1,3.63,1.58,7.24,7.24,0,0,1,2.35,2.76,9,9,0,0,1,.85,4.08v22.56h-5.72V521.89a12.75,12.75,0,0,0-.27-2.68,5.23,5.23,0,0,0-1-2.17,5.12,5.12,0,0,0-2.05-1.46,9.29,9.29,0,0,0-3.4-.53,9.68,9.68,0,0,0-6.66,2.14,7.23,7.23,0,0,0-2.42,5.71v19.17H984V521.89a11.8,11.8,0,0,0-.3-2.74,5.7,5.7,0,0,0-1-2.17,4.83,4.83,0,0,0-2-1.43,8.77,8.77,0,0,0-3.2-.5,9.38,9.38,0,0,0-4.27.89,9.59,9.59,0,0,0-2.89,2.14,8.56,8.56,0,0,0-1.62,2.59,6.74,6.74,0,0,0-.5,2.23v19.17h-5.72V511.3Z" transform="translate(-735.1 -396.09)"></path><path class="cls-3" d="M1025.74,499.57v15.89h.13a8.25,8.25,0,0,1,4.44-3.72,18.56,18.56,0,0,1,6.66-1.16,17.46,17.46,0,0,1,7,1.31,14.25,14.25,0,0,1,5,3.54,15.34,15.34,0,0,1,3,5.15,18.9,18.9,0,0,1,1,6.19,19.34,19.34,0,0,1-1,6.19,14.07,14.07,0,0,1-3,5.09,13.74,13.74,0,0,1-5,3.42,17.8,17.8,0,0,1-7,1.25,20.52,20.52,0,0,1-2.86-.23,17.27,17.27,0,0,1-3.13-.78,12.73,12.73,0,0,1-2.93-1.46,8.43,8.43,0,0,1-2.32-2.29h-.13v4.11H1020v-42.5Zm20.55,22.65a10.93,10.93,0,0,0-2-3.66A9.42,9.42,0,0,0,1041,516a11.4,11.4,0,0,0-4.81-1,10.91,10.91,0,0,0-4.91,1,9.44,9.44,0,0,0-3.3,2.65,10.32,10.32,0,0,0-1.85,3.72,16.1,16.1,0,0,0,0,8.6,10.14,10.14,0,0,0,1.92,3.72,9.61,9.61,0,0,0,3.4,2.59,11.83,11.83,0,0,0,5,1,10.91,10.91,0,0,0,5-1,8.84,8.84,0,0,0,3.19-2.68,10.9,10.9,0,0,0,1.75-3.81,18,18,0,0,0,.54-4.4A13.94,13.94,0,0,0,1046.29,522.22Z" transform="translate(-735.1 -396.09)"></path><path class="cls-3" d="M1058.91,520.37a13.78,13.78,0,0,1,3.23-5.11,15.27,15.27,0,0,1,5.31-3.43,21.85,21.85,0,0,1,14.57,0,15.51,15.51,0,0,1,5.28,3.43,14,14,0,0,1,3.23,5.11,18.55,18.55,0,0,1,1.07,6.34,18.21,18.21,0,0,1-1.07,6.31,14.13,14.13,0,0,1-3.23,5.09,15,15,0,0,1-5.28,3.39,22.36,22.36,0,0,1-14.57,0,14.77,14.77,0,0,1-5.31-3.39,13.86,13.86,0,0,1-3.23-5.09,18,18,0,0,1-1.08-6.31A18.31,18.31,0,0,1,1058.91,520.37Zm5.82,11.31a9.93,9.93,0,0,0,5.78,5.87,11.87,11.87,0,0,0,8.41,0,9.91,9.91,0,0,0,5.79-5.87,15.12,15.12,0,0,0,0-9.94,10.71,10.71,0,0,0-2.32-3.66,10.07,10.07,0,0,0-3.47-2.26,11.87,11.87,0,0,0-8.41,0,9.93,9.93,0,0,0-3.46,2.26,10.56,10.56,0,0,0-2.32,3.66,15,15,0,0,0,0,9.94Z" transform="translate(-735.1 -396.09)"></path><path class="cls-3" d="M1123.69,542.07V537.9h-.13a8,8,0,0,1-4.44,3.69,18.77,18.77,0,0,1-6.66,1.13,17.29,17.29,0,0,1-7-1.31,14.18,14.18,0,0,1-5-3.51,14.76,14.76,0,0,1-3-5.12,18.81,18.81,0,0,1-1-6.19,19.43,19.43,0,0,1,1-6.19,14,14,0,0,1,3-5.08,14.2,14.2,0,0,1,5-3.46,17.67,17.67,0,0,1,7-1.28,19.08,19.08,0,0,1,2.9.24,16,16,0,0,1,3.09.81,13.66,13.66,0,0,1,2.93,1.48,8.71,8.71,0,0,1,2.32,2.29h.13V499.57h5.72v42.5Zm-20.55-10.92a10.93,10.93,0,0,0,1.95,3.66,9.51,9.51,0,0,0,3.36,2.56,11.45,11.45,0,0,0,4.82,1,11,11,0,0,0,4.91-1,9.61,9.61,0,0,0,3.29-2.65,10.32,10.32,0,0,0,1.85-3.72,15.84,15.84,0,0,0,0-8.6,10.14,10.14,0,0,0-1.92-3.72A9.54,9.54,0,0,0,1118,516a11.91,11.91,0,0,0-5-1,10.91,10.91,0,0,0-4.91,1,8.71,8.71,0,0,0-3.23,2.68,10.9,10.9,0,0,0-1.75,3.81,17.91,17.91,0,0,0-.54,4.4A13.94,13.94,0,0,0,1103.14,531.15Z" transform="translate(-735.1 -396.09)"></path><path class="cls-3" d="M1138.56,505.76v-6.19h5.72v6.19Zm5.72,5.54v30.77h-5.72V511.3Z" transform="translate(-735.1 -396.09)"></path><path class="cls-3" d="M1179.87,542.72a5.27,5.27,0,0,1-3.53-1.1A4.43,4.43,0,0,1,1175,538a13.58,13.58,0,0,1-5.48,3.6,20.05,20.05,0,0,1-6.76,1.1,21,21,0,0,1-4.44-.44,10.85,10.85,0,0,1-3.67-1.49,7.61,7.61,0,0,1-2.49-2.68,8.1,8.1,0,0,1-.9-4,7.59,7.59,0,0,1,3.66-7,13.2,13.2,0,0,1,3.77-1.58c1.41-.35,2.86-.65,4.34-.89s3.06-.49,4.47-.63a26.28,26.28,0,0,0,3.74-.59,6.7,6.7,0,0,0,2.55-1.13,2.61,2.61,0,0,0,1-2.17,4.32,4.32,0,0,0-2.53-4.23,7.76,7.76,0,0,0-2.49-.71,20.94,20.94,0,0,0-2.72-.18,13.35,13.35,0,0,0-6.06,1.22c-1.61.81-2.49,2.35-2.62,4.61h-5.72a9.93,9.93,0,0,1,1.35-4.82,9.48,9.48,0,0,1,3.23-3.19,14.58,14.58,0,0,1,4.64-1.75,27.32,27.32,0,0,1,5.51-.54,36.42,36.42,0,0,1,4.68.3,13.57,13.57,0,0,1,4.21,1.22,7.87,7.87,0,0,1,3,2.59,7.54,7.54,0,0,1,1.14,4.34v15.84a11,11,0,0,0,.23,2.62c.16.55.69.83,1.58.83a6.23,6.23,0,0,0,1.75-.3V542A8.88,8.88,0,0,1,1179.87,542.72Zm-8-15.5c-1.16.22-2.39.4-3.66.53s-2.57.3-3.87.48a16.15,16.15,0,0,0-3.5.86,6.42,6.42,0,0,0-2.52,1.7,4.4,4.4,0,0,0-1,3,3.76,3.76,0,0,0,.57,2.11,4.61,4.61,0,0,0,1.48,1.4,7,7,0,0,0,2.15.77,13.39,13.39,0,0,0,2.53.24,15,15,0,0,0,4.84-.69,10.44,10.44,0,0,0,3.3-1.72,6.88,6.88,0,0,0,1.88-2.26,5.14,5.14,0,0,0,.61-2.29v-5.18A7.79,7.79,0,0,1,1171.86,527.22Z" transform="translate(-735.1 -396.09)"></path><path class="cls-4" d="M1022.44,594.87l-16.89-42.5h6.87l13.72,36.85h.13l13.86-36.85h6.66l-17.08,42.5Z" transform="translate(-735.1 -396.09)"></path><path class="cls-4" d="M1050.09,558.56v-6.19h5.72v6.19Zm5.72,5.54v30.77h-5.72V564.1Z" transform="translate(-735.1 -396.09)"></path><path class="cls-4" d="M1069.06,588a5.85,5.85,0,0,0,2.12,1.85,10.31,10.31,0,0,0,3,1,18.94,18.94,0,0,0,3.4.3,23.51,23.51,0,0,0,2.83-.18,11.9,11.9,0,0,0,2.72-.65,5.17,5.17,0,0,0,2.05-1.4,3.44,3.44,0,0,0,.81-2.35,3.27,3.27,0,0,0-1.68-3,15.47,15.47,0,0,0-4.21-1.64q-2.52-.61-5.48-1.13a30.26,30.26,0,0,1-5.48-1.43,11.32,11.32,0,0,1-4.21-2.59,6.23,6.23,0,0,1-1.68-4.64,6.72,6.72,0,0,1,1.18-4,9,9,0,0,1,3-2.7,14.77,14.77,0,0,1,4.17-1.55,21.33,21.33,0,0,1,4.6-.51,30.57,30.57,0,0,1,5.45.45,13.55,13.55,0,0,1,4.41,1.55,8.38,8.38,0,0,1,3.06,3,10.4,10.4,0,0,1,1.35,4.68h-5.72a4.7,4.7,0,0,0-.88-2.48A5.44,5.44,0,0,0,1082,569a9.15,9.15,0,0,0-2.52-.87,15.33,15.33,0,0,0-2.79-.26,18.9,18.9,0,0,0-2.59.18,9.1,9.1,0,0,0-2.39.62,4.88,4.88,0,0,0-1.75,1.19,2.78,2.78,0,0,0-.68,1.94,2.7,2.7,0,0,0,1,2.17,8.67,8.67,0,0,0,2.66,1.43,26.44,26.44,0,0,0,3.63,1c1.34.26,2.69.52,4,.8s2.83.62,4.2,1a14.68,14.68,0,0,1,3.63,1.58,8.17,8.17,0,0,1,2.56,2.47,6.59,6.59,0,0,1,1,3.69,7.76,7.76,0,0,1-1.32,4.64,9.65,9.65,0,0,1-3.43,3,15.66,15.66,0,0,1-4.77,1.58,31.73,31.73,0,0,1-5.29.44,28,28,0,0,1-5.51-.53,14.5,14.5,0,0,1-4.65-1.76,9.33,9.33,0,0,1-3.22-3.21,10.11,10.11,0,0,1-1.35-4.85h5.72A5.12,5.12,0,0,0,1069.06,588Z" transform="translate(-735.1 -396.09)"></path><path class="cls-4" d="M1098.67,558.56v-6.19h5.71v6.19Zm5.71,5.54v30.77h-5.71V564.1Z" transform="translate(-735.1 -396.09)"></path><path class="cls-4" d="M1112.46,573.17a13.9,13.9,0,0,1,3.23-5.12,15.39,15.39,0,0,1,5.31-3.42,21.85,21.85,0,0,1,14.57,0,15.64,15.64,0,0,1,5.28,3.42,14.16,14.16,0,0,1,3.23,5.12,18.55,18.55,0,0,1,1.07,6.34,18.25,18.25,0,0,1-1.07,6.31,14.13,14.13,0,0,1-3.23,5.09,15,15,0,0,1-5.28,3.39,22.36,22.36,0,0,1-14.57,0,14.77,14.77,0,0,1-5.31-3.39,13.86,13.86,0,0,1-3.23-5.09,18,18,0,0,1-1.08-6.31A18.31,18.31,0,0,1,1112.46,573.17Zm5.82,11.31a10.07,10.07,0,0,0,2.32,3.63,9.86,9.86,0,0,0,3.46,2.23,11.72,11.72,0,0,0,8.41,0,10,10,0,0,0,3.47-2.23,10.21,10.21,0,0,0,2.32-3.63,15.12,15.12,0,0,0,0-9.94,10.61,10.61,0,0,0-2.32-3.66,10.07,10.07,0,0,0-3.47-2.26,11.87,11.87,0,0,0-8.41,0,9.93,9.93,0,0,0-3.46,2.26,10.47,10.47,0,0,0-2.32,3.66,15,15,0,0,0,0,9.94Z" transform="translate(-735.1 -396.09)"></path><path class="cls-4" d="M1157.26,564.1V569h.14q3.55-5.6,11.3-5.6a16.77,16.77,0,0,1,5.72.84,9.45,9.45,0,0,1,3.7,2.32,8.26,8.26,0,0,1,2,3.54,16.61,16.61,0,0,1,.58,4.55v20.24H1175V574a5.74,5.74,0,0,0-1.89-4.53,7.53,7.53,0,0,0-5.18-1.66,12.92,12.92,0,0,0-4.54.71,8.34,8.34,0,0,0-5.11,5.09,11.05,11.05,0,0,0-.64,3.84v17.38h-5.72V564.1Z" transform="translate(-735.1 -396.09)"></path></svg> 